@startuml
            set namespaceSeparator .
        first_diamond.First *-- "1..*" diamond.second.Second
first_diamond.First *-- "1..*" diamond.third.Third
class first_diamond.First  {
}


class ID <<match>> {
}


class STRING <<match>> {
}


class BOOL <<match>> {
}


class INT <<match>> {
}


class FLOAT <<match>> {
}


class STRICTFLOAT <<match>> {
}


class NUMBER <<match>> {
}

NUMBER <|-- STRICTFLOAT
NUMBER <|-- INT

class BASETYPE <<match>> {
}

BASETYPE <|-- NUMBER
BASETYPE <|-- FLOAT
BASETYPE <|-- BOOL
BASETYPE <|-- ID
BASETYPE <|-- STRING

class OBJECT <<abstract>> {
}

OBJECT <|-- BASETYPE

diamond.second.Second *-- diamond.last.MyDiamondRule
class diamond.second.Second  {
}


diamond.third.Third *-- diamond.last.MyDiamondRule
class diamond.third.Third  {
}


@enduml
