@startuml
set namespaceSeparator .


class third.Third  {
}


class ID <<match>> {
}


class STRING <<match>> {
}


class BOOL <<match>> {
}


class INT <<match>> {
}


class FLOAT <<match>> {
}


class STRICTFLOAT <<match>> {
}


class NUMBER <<match>> {
}


class BASETYPE <<match>> {
}


class OBJECT <<abstract>> {
}


class last.MyDiamondRule  {
  INT a
}


third.Third *-- last.MyDiamondRule
NUMBER <|-- STRICTFLOAT
NUMBER <|-- INT
BASETYPE <|-- NUMBER
BASETYPE <|-- FLOAT
BASETYPE <|-- BOOL
BASETYPE <|-- ID
BASETYPE <|-- STRING
OBJECT <|-- BASETYPE
@enduml
