@startuml
set namespaceSeparator .


class first_new.First  {
}


class first_new.Third  {
  STRING chain
}


class ID <<match>> {
}


class STRING <<match>> {
}


class BOOL <<match>> {
}


class INT <<match>> {
}


class FLOAT <<match>> {
}


class STRICTFLOAT <<match>> {
}


class NUMBER <<match>> {
}


class BASETYPE <<match>> {
}


class OBJECT <<abstract>> {
}


class second.Second  {
}


first_new.First *-- "1..*" second.Second
first_new.First *-- "1..*" first_new.Third
NUMBER <|-- STRICTFLOAT
NUMBER <|-- INT
BASETYPE <|-- NUMBER
BASETYPE <|-- FLOAT
BASETYPE <|-- BOOL
BASETYPE <|-- ID
BASETYPE <|-- STRING
OBJECT <|-- BASETYPE
second.Second *-- "1..*" relative.third.Third
@enduml
