@startuml
set namespaceSeparator .


class first_repr.First  {
}


class ID <<match>> {
}


class STRING <<match>> {
}


class BOOL <<match>> {
}


class INT <<match>> {
}


class FLOAT <<match>> {
}


class STRICTFLOAT <<match>> {
}


class NUMBER <<match>> {
}


class BASETYPE <<match>> {
}


class OBJECT <<abstract>> {
}


class second_repr.Second  {
}


first_repr.First *-- "1..*" second_repr.Second
NUMBER <|-- STRICTFLOAT
NUMBER <|-- INT
BASETYPE <|-- NUMBER
BASETYPE <|-- FLOAT
BASETYPE <|-- BOOL
BASETYPE <|-- ID
BASETYPE <|-- STRING
OBJECT <|-- BASETYPE
second_repr.Second *-- "1..*" third_repr.Third
@enduml
